<?xml version="1.0" encoding="utf-8"?>
<!-- Generator: Adobe Illustrator 23.0.5, SVG Export Plug-In . SVG Version: 6.00 Build 0)  -->
<svg version="1.1" id="users-team" xmlns="http://www.w3.org/2000/svg" xmlns:xlink="http://www.w3.org/1999/xlink" x="0px" y="0px"
	 viewBox="0 0 1010 739.7" style="enable-background:new 0 0 1010 739.7;" xml:space="preserve">
<style type="text/css">
	.st0{opacity:0.9;}
	.st1{fill:#BE50B9;}
	.st2{opacity:0.5;}
	.st3{fill:#17C7BB;}
	.st4{opacity:0.5;fill:#17C7BB;}
</style>
<g id="users-team-users-team">
	<g class="st0">
		<image style="overflow:visible;" width="686" height="668" xlink:href="F669BD2C.png"  transform="matrix(1 0 0 1 169 107.746)">
		</image>
	</g>
	<g class="st0">
		<image style="overflow:visible;" width="686" height="668" xlink:href="F669BD2B.png"  transform="matrix(1 0 0 1 152 107.746)">
		</image>
	</g>
	<path class="st1" d="M580.9,565.1c-15.2-2.4-15.5-43.6-15.5-43.6s44.5-43.7,54.2-102.4c26.1,0,42.2-62.4,16.1-84.4
		c1.1-23.1,33.5-181.4-130.7-181.4c-164.2,0-131.7,158.3-130.6,181.4c-26.1,22-10,84.4,16.1,84.4c9.7,58.7,54.2,102.4,54.2,102.4
		s-0.4,41.2-15.5,43.6c-48.8,7.7-230.8,87.3-230.8,174.6H505h306.7C811.7,652.4,629.7,572.9,580.9,565.1z"/>
	<g class="st2">
		<path class="st3" d="M274.8,579.1c35.2-21.7,78-41.8,113.1-53.9c-12.6-17.9-26.6-42.3-35.4-71.1c-12.3-10-22.3-24.4-28.8-42
			c-6.4-17.7-8.9-37.4-6.8-55.6c1.4-13.1,5.2-25.3,10.9-36c-3.4-37.2-5.9-110.3,41.9-163.5c18.6-20.7,42-35.5,70.1-44.4
			C434.6,60.7,408.4,0,306.7,0C142.5,0,174.9,158.3,176,181.4c-26.1,21.9-10,84.4,16.1,84.4c9.7,58.7,54.2,102.3,54.2,102.3
			s-0.4,41.3-15.5,43.7C182,419.5,0,499.1,0,586.4h263.2C267,583.9,270.8,581.5,274.8,579.1z"/>
		<path class="st4" d="M746.8,586.4H1010c0-87.3-182-166.9-230.8-174.6c-15.1-2.4-15.4-43.7-15.4-43.7s44.5-43.7,54.2-102.3
			c26.1,0,42.2-62.5,16.1-84.4C835.1,158.3,867.5,0,703.3,0c-101.7,0-127.9,60.7-133,112.5c28.1,8.9,51.5,23.8,70.1,44.4
			c47.8,53.3,45.3,126.3,41.9,163.5c5.7,10.7,9.4,22.9,10.9,36c2,18.2-0.4,38-6.8,55.6c-6.5,17.6-16.5,32-28.8,42
			c-8.8,28.8-22.8,53.2-35.4,71.1c35.1,12.1,77.9,32.2,113.1,53.9C739.2,581.5,743,583.9,746.8,586.4z"/>
	</g>
</g>
</svg>
