<?xml version="1.0" encoding="utf-8"?>
<!-- Generator: Adobe Illustrator 23.0.5, SVG Export Plug-In . SVG Version: 6.00 Build 0)  -->
<svg version="1.1" id="Слой_1" xmlns="http://www.w3.org/2000/svg" xmlns:xlink="http://www.w3.org/1999/xlink" x="0px" y="0px"
	 viewBox="0 0 500 500" style="enable-background:new 0 0 500 500;" xml:space="preserve">
<style type="text/css">
	.st0{fill:#D3CFCF;}
	.st1{fill:#7A5E4A;}
	.st2{fill:#3C0952;}
	.st3{fill:#17C7BB;}
	.st4{fill:#15B5AA;}
	.st5{fill:#18D4C7;}
</style>
<g>
	<rect x="237.9" y="27.2" class="st0" width="24.3" height="122.9"/>
	<rect x="144.4" y="172.2" class="st0" width="217.4" height="306.2"/>
	<rect x="158.3" y="332.9" class="st1" width="187.1" height="72.3"/>
	<rect x="145" y="325.5" class="st2" width="218.1" height="7.4"/>
	<rect x="130.4" y="403.8" class="st3" width="245.4" height="96.2"/>
	<rect x="237.9" y="203" class="st2" width="24.3" height="122.9"/>
	<rect x="130.4" y="150.6" class="st3" width="245.4" height="56.2"/>
	<path class="st3" d="M307.1,27.2c0,9.7-26.1,7.8-58.3,7.8s-58.3,1.8-58.3-7.8S216.6,0,248.8,0C281,0,307.1,17.5,307.1,27.2z"/>
	<rect x="315.6" y="150.1" class="st4" width="40.7" height="56.2"/>
	<rect x="315.6" y="403.8" class="st4" width="40.7" height="75"/>
	<rect x="164.4" y="150.1" class="st5" width="23.7" height="56.2"/>
	<rect x="164.4" y="403.8" class="st5" width="23.7" height="75"/>
</g>
</svg>
